<?xml version="1.0" encoding="UTF-8"?>
<svg xmlns="http://www.w3.org/2000/svg" xmlns:xlink="http://www.w3.org/1999/xlink" width="24" height="24" viewBox="0 0 24 24" version="1.1">
<g id="surface1">
<path style=" stroke:none;fill-rule:nonzero;fill:rgb(0%,0%,0%);fill-opacity:1;" d="M 23.265625 15 C 23.265625 14.679688 23.066406 14.410156 22.785156 14.300781 C 21.609375 13.636719 20.253906 12.605469 20.25 11.390625 C 20.246094 9.9375 22.136719 8.5625 22.867188 8.15625 C 22.90625 8.132812 22.9375 8.101562 22.972656 8.070312 C 22.996094 8.050781 23.019531 8.035156 23.042969 8.015625 C 23.101562 7.949219 23.152344 7.878906 23.1875 7.800781 C 23.191406 7.789062 23.191406 7.773438 23.199219 7.761719 C 23.226562 7.6875 23.242188 7.609375 23.246094 7.527344 C 23.246094 7.519531 23.25 7.507812 23.25 7.5 L 23.25 1.5 C 23.25 1.195312 23.066406 0.921875 22.789062 0.808594 C 22.507812 0.691406 22.183594 0.753906 21.96875 0.96875 L 18.96875 3.96875 C 18.753906 4.183594 18.691406 4.507812 18.808594 4.789062 C 18.921875 5.066406 19.195312 5.25 19.5 5.25 L 21 5.25 C 21.414062 5.25 21.75 4.914062 21.75 4.5 C 21.75 4.179688 21.546875 3.90625 21.261719 3.796875 L 21.75 3.308594 L 21.75 6.75 L 12.75 6.75 L 12.75 3.308594 L 13.238281 3.796875 C 12.953125 3.90625 12.75 4.179688 12.75 4.5 C 12.75 4.914062 13.085938 5.25 13.5 5.25 L 15 5.25 C 15.304688 5.25 15.578125 5.066406 15.691406 4.789062 C 15.808594 4.507812 15.746094 4.183594 15.53125 3.96875 L 12.53125 0.96875 C 12.316406 0.753906 11.992188 0.691406 11.710938 0.808594 C 11.433594 0.921875 11.25 1.195312 11.25 1.5 L 11.25 6.75 L 2.25 6.75 L 2.25 3.308594 L 2.738281 3.796875 C 2.453125 3.90625 2.25 4.179688 2.25 4.5 C 2.25 4.914062 2.585938 5.25 3 5.25 L 4.5 5.25 C 4.804688 5.25 5.078125 5.066406 5.191406 4.789062 C 5.308594 4.507812 5.246094 4.183594 5.03125 3.96875 L 2.03125 0.96875 C 1.816406 0.753906 1.492188 0.691406 1.210938 0.808594 C 0.933594 0.921875 0.75 1.195312 0.75 1.5 L 0.75 7.5 C 0.75 7.507812 0.753906 7.515625 0.753906 7.527344 C 0.757812 7.609375 0.773438 7.691406 0.804688 7.769531 C 0.808594 7.777344 0.808594 7.785156 0.8125 7.792969 C 0.84375 7.875 0.894531 7.949219 0.957031 8.015625 C 0.980469 8.035156 1.003906 8.050781 1.03125 8.070312 C 1.066406 8.101562 1.097656 8.132812 1.136719 8.15625 C 1.863281 8.558594 3.75 9.929688 3.75 11.390625 C 3.75 12.632812 2.328125 13.679688 1.136719 14.34375 C 1.097656 14.367188 1.066406 14.398438 1.03125 14.429688 C 1.007812 14.449219 0.980469 14.464844 0.957031 14.484375 C 0.894531 14.550781 0.84375 14.625 0.8125 14.707031 C 0.808594 14.714844 0.808594 14.722656 0.804688 14.730469 C 0.773438 14.808594 0.757812 14.890625 0.753906 14.972656 C 0.753906 14.984375 0.75 14.992188 0.75 15 L 0.75 19.5 C 0.75 19.914062 1.085938 20.25 1.5 20.25 L 22.5 20.25 C 22.914062 20.25 23.25 19.914062 23.25 19.5 L 23.25 15.074219 C 23.253906 15.046875 23.265625 15.027344 23.265625 15 Z M 3.703125 8.25 L 20.296875 8.25 C 19.5 9.039062 18.75 10.121094 18.75 11.390625 C 18.75 12.40625 19.222656 13.363281 20.15625 14.25 L 3.84375 14.25 C 4.777344 13.363281 5.25 12.40625 5.25 11.390625 C 5.25 10.121094 4.5 9.039062 3.703125 8.25 Z M 16.5 18.75 L 16.5 18 C 16.5 17.585938 16.164062 17.25 15.75 17.25 L 8.25 17.25 C 7.835938 17.25 7.5 17.585938 7.5 18 L 7.5 18.75 L 2.25 18.75 L 2.25 15.75 L 21.75 15.75 L 21.75 18.75 Z M 16.5 18.75 "/>
<path style=" stroke:none;fill-rule:nonzero;fill:rgb(0%,0%,0%);fill-opacity:1;" d="M 8.25 12.75 L 15.75 12.75 C 16.164062 12.75 16.5 12.414062 16.5 12 L 16.5 10.5 C 16.5 10.085938 16.164062 9.75 15.75 9.75 L 8.25 9.75 C 7.835938 9.75 7.5 10.085938 7.5 10.5 L 7.5 12 C 7.5 12.414062 7.835938 12.75 8.25 12.75 Z M 8.25 12.75 "/>
<path style=" stroke:none;fill-rule:nonzero;fill:rgb(0%,0%,0%);fill-opacity:1;" d="M 22.5 21.75 L 16.5 21.75 C 16.085938 21.75 15.75 22.085938 15.75 22.5 C 15.75 22.914062 16.085938 23.25 16.5 23.25 L 22.5 23.25 C 22.914062 23.25 23.25 22.914062 23.25 22.5 C 23.25 22.085938 22.914062 21.75 22.5 21.75 Z M 22.5 21.75 "/>
<path style=" stroke:none;fill-rule:nonzero;fill:rgb(0%,0%,0%);fill-opacity:1;" d="M 14.25 21.75 L 12.75 21.75 C 12.335938 21.75 12 22.085938 12 22.5 C 12 22.914062 12.335938 23.25 12.75 23.25 L 14.25 23.25 C 14.664062 23.25 15 22.914062 15 22.5 C 15 22.085938 14.664062 21.75 14.25 21.75 Z M 14.25 21.75 "/>
<path style=" stroke:none;fill-rule:nonzero;fill:rgb(0%,0%,0%);fill-opacity:1;" d="M 10.5 21.75 L 1.5 21.75 C 1.085938 21.75 0.75 22.085938 0.75 22.5 C 0.75 22.914062 1.085938 23.25 1.5 23.25 L 10.5 23.25 C 10.914062 23.25 11.25 22.914062 11.25 22.5 C 11.25 22.085938 10.914062 21.75 10.5 21.75 Z M 10.5 21.75 "/>
</g>
</svg>
