<?xml version="1.0" encoding="UTF-8"?>
<svg xmlns="http://www.w3.org/2000/svg" xmlns:xlink="http://www.w3.org/1999/xlink" width="40" height="40" viewBox="0 0 40 40" version="1.1">
<defs>
<radialGradient id="radial0" gradientUnits="userSpaceOnUse" cx="104.957123" cy="447.447433" fx="104.957123" fy="447.447433" r="564.64589" gradientTransform="matrix(0.078125,0,0,0.078125,0.0000148438,0)">
<stop offset="0" style="stop-color:rgb(98.039216%,88.235294%,0%);stop-opacity:1;"/>
<stop offset="0.0544" style="stop-color:rgb(98.039216%,86.27451%,1.568627%);stop-opacity:1;"/>
<stop offset="0.1167" style="stop-color:rgb(98.431373%,80.784314%,5.490196%);stop-opacity:1;"/>
<stop offset="0.1829" style="stop-color:rgb(98.823529%,71.764706%,12.54902%);stop-opacity:1;"/>
<stop offset="0.2514" style="stop-color:rgb(99.607843%,59.607843%,21.960784%);stop-opacity:1;"/>
<stop offset="0.3054" style="stop-color:rgb(100%,47.45098%,31.372549%);stop-opacity:1;"/>
<stop offset="0.4922" style="stop-color:rgb(100%,10.980392%,45.490196%);stop-opacity:1;"/>
<stop offset="1" style="stop-color:rgb(42.352941%,10.980392%,81.960784%);stop-opacity:1;"/>
</radialGradient>
<linearGradient id="linear0" gradientUnits="userSpaceOnUse" x1="196.372654" y1="222.459678" x2="-671.015954" y2="-265.446414" gradientTransform="matrix(0.078125,0,0,0.078125,0.0000148438,0)">
<stop offset="0" style="stop-color:rgb(63.137255%,70.980392%,84.705882%);stop-opacity:0;"/>
<stop offset="0.3094" style="stop-color:rgb(56.470588%,63.529412%,74.117647%);stop-opacity:0.309804;"/>
<stop offset="0.7554" style="stop-color:rgb(48.627451%,54.509804%,61.176471%);stop-opacity:0.756863;"/>
<stop offset="1" style="stop-color:rgb(45.490196%,50.980392%,56.470588%);stop-opacity:1;"/>
</linearGradient>
<linearGradient id="linear1" gradientUnits="userSpaceOnUse" x1="256.0003" y1="451.966086" x2="256.0003" y2="531.77397" gradientTransform="matrix(0.078125,0,0,0.078125,0.0000148438,0)">
<stop offset="0" style="stop-color:rgb(98.039216%,88.235294%,0%);stop-opacity:0;"/>
<stop offset="0.3068" style="stop-color:rgb(98.823529%,65.882353%,0%);stop-opacity:0.305882;"/>
<stop offset="0.6275" style="stop-color:rgb(99.607843%,45.098039%,0%);stop-opacity:0.627451;"/>
<stop offset="0.8685" style="stop-color:rgb(100%,32.156863%,0%);stop-opacity:0.866667;"/>
<stop offset="1" style="stop-color:rgb(100%,27.058824%,0%);stop-opacity:1;"/>
</linearGradient>
<linearGradient id="linear2" gradientUnits="userSpaceOnUse" x1="226.872407" y1="226.147987" x2="100.160685" y2="99.436165" gradientTransform="matrix(0.078125,0,0,0.078125,0.0000148438,0)">
<stop offset="0" style="stop-color:rgb(51.372549%,22.745098%,70.588235%);stop-opacity:0;"/>
<stop offset="1" style="stop-color:rgb(51.372549%,22.745098%,70.588235%);stop-opacity:1;"/>
</linearGradient>
<linearGradient id="linear3" gradientUnits="userSpaceOnUse" x1="350.899541" y1="468.287448" x2="287.655567" y2="170.137573" gradientTransform="matrix(0.078125,0,0,0.078125,0.0000148438,0)">
<stop offset="0" style="stop-color:rgb(51.372549%,22.745098%,70.588235%);stop-opacity:0;"/>
<stop offset="1" style="stop-color:rgb(51.372549%,22.745098%,70.588235%);stop-opacity:1;"/>
</linearGradient>
<linearGradient id="linear4" gradientUnits="userSpaceOnUse" x1="374.965057" y1="374.964967" x2="120.941067" y2="120.940877" gradientTransform="matrix(0.078125,0,0,0.078125,0.0000148438,0)">
<stop offset="0" style="stop-color:rgb(51.372549%,22.745098%,70.588235%);stop-opacity:0;"/>
<stop offset="1" style="stop-color:rgb(51.372549%,22.745098%,70.588235%);stop-opacity:1;"/>
</linearGradient>
<linearGradient id="linear5" gradientUnits="userSpaceOnUse" x1="393.806665" y1="221.263104" x2="309.805801" y2="137.26234" gradientTransform="matrix(0.078125,0,0,0.078125,0.0000148438,0)">
<stop offset="0" style="stop-color:rgb(51.372549%,22.745098%,70.588235%);stop-opacity:0;"/>
<stop offset="1" style="stop-color:rgb(51.372549%,22.745098%,70.588235%);stop-opacity:1;"/>
</linearGradient>
<linearGradient id="linear6" gradientUnits="userSpaceOnUse" x1="357.658245" y1="155.049529" x2="150.542611" y2="362.165163" gradientTransform="matrix(0.078125,0,0,0.078125,0.0000148438,0)">
<stop offset="0" style="stop-color:rgb(51.372549%,22.745098%,70.588235%);stop-opacity:1;"/>
<stop offset="0.0922" style="stop-color:rgb(61.176471%,20.392157%,58.431373%);stop-opacity:1;"/>
<stop offset="0.2927" style="stop-color:rgb(86.27451%,14.509804%,27.45098%);stop-opacity:1;"/>
<stop offset="0.392" style="stop-color:rgb(99.215686%,11.372549%,11.372549%);stop-opacity:1;"/>
<stop offset="0.5589" style="stop-color:rgb(98.823529%,40.784314%,19.215686%);stop-opacity:1;"/>
<stop offset="0.6887" style="stop-color:rgb(98.823529%,60.784314%,25.098039%);stop-opacity:1;"/>
<stop offset="0.7521" style="stop-color:rgb(98.823529%,68.627451%,27.058824%);stop-opacity:1;"/>
<stop offset="0.7806" style="stop-color:rgb(99.215686%,71.764706%,31.372549%);stop-opacity:1;"/>
<stop offset="0.8656" style="stop-color:rgb(99.607843%,79.607843%,41.568627%);stop-opacity:1;"/>
<stop offset="0.9415" style="stop-color:rgb(100%,84.705882%,47.843137%);stop-opacity:1;"/>
<stop offset="1" style="stop-color:rgb(100%,86.27451%,50.196078%);stop-opacity:1;"/>
</linearGradient>
</defs>
<g id="surface1">
<path style=" stroke:none;fill-rule:nonzero;fill:url(#radial0);" d="M 39.3125 7.15625 C 38.953125 3.742188 36.257812 1.046875 32.84375 0.6875 C 24.289062 -0.226562 15.710938 -0.226562 7.15625 0.6875 C 3.742188 1.046875 1.046875 3.742188 0.6875 7.15625 C -0.226562 15.710938 -0.226562 24.289062 0.6875 32.84375 C 1.046875 36.257812 3.742188 38.953125 7.15625 39.3125 C 15.710938 40.226562 24.289062 40.226562 32.84375 39.3125 C 36.257812 38.953125 38.953125 36.257812 39.3125 32.84375 C 40.226562 24.289062 40.226562 15.710938 39.3125 7.15625 Z M 39.3125 7.15625 "/>
<path style=" stroke:none;fill-rule:nonzero;fill:url(#linear0);" d="M 37.140625 8.601562 C 36.816406 5.574219 34.425781 3.183594 31.398438 2.859375 C 23.804688 2.050781 16.195312 2.050781 8.601562 2.859375 C 5.574219 3.183594 3.183594 5.574219 2.859375 8.601562 C 2.050781 16.195312 2.050781 23.804688 2.859375 31.398438 C 3.183594 34.425781 5.574219 36.816406 8.601562 37.140625 C 16.195312 37.949219 23.804688 37.949219 31.398438 37.140625 C 34.425781 36.816406 36.816406 34.425781 37.140625 31.398438 C 37.949219 23.804688 37.949219 16.195312 37.140625 8.601562 Z M 37.140625 8.601562 "/>
<path style=" stroke:none;fill-rule:nonzero;fill:url(#linear1);" d="M 0.601562 32.015625 C 0.625 32.292969 0.65625 32.570312 0.6875 32.84375 C 1.046875 36.257812 3.742188 38.953125 7.15625 39.3125 C 15.710938 40.226562 24.289062 40.226562 32.84375 39.3125 C 36.257812 38.953125 38.953125 36.257812 39.3125 32.84375 C 39.34375 32.570312 39.375 32.292969 39.398438 32.015625 Z M 0.601562 32.015625 "/>
<path style=" stroke:none;fill-rule:nonzero;fill:url(#linear2);" d="M 39.3125 32.84375 C 39.804688 28.25 40.03125 23.644531 39.996094 19.039062 L 30.851562 9.898438 C 29.710938 8.59375 28.039062 7.78125 26.082031 7.710938 C 22.050781 7.5625 18.007812 7.570312 13.972656 7.710938 C 10.625 7.824219 8.28125 10.078125 7.679688 13.382812 C 7.578125 13.96875 7.511719 14.5625 7.429688 15.148438 L 7.429688 24.847656 C 7.476562 25.164062 7.542969 25.476562 7.5625 25.789062 C 7.695312 27.804688 8.523438 29.527344 9.851562 30.695312 L 19.15625 39.996094 C 23.71875 40.03125 28.285156 39.804688 32.84375 39.3125 C 36.257812 38.953125 38.953125 36.257812 39.3125 32.84375 Z M 39.3125 32.84375 "/>
<path style=" stroke:none;fill-rule:nonzero;fill:url(#linear3);" d="M 39.3125 32.84375 C 38.953125 36.257812 36.257812 38.953125 32.84375 39.3125 C 28.289062 39.800781 23.71875 40.03125 19.15625 39.996094 L 9.863281 30.707031 C 10.941406 31.648438 12.34375 32.222656 13.972656 32.285156 C 18.003906 32.4375 22.050781 32.429688 26.082031 32.289062 C 29.726562 32.15625 32.367188 29.457031 32.480469 25.8125 C 32.601562 21.9375 32.601562 18.054688 32.480469 14.1875 C 32.429688 12.503906 31.835938 11.023438 30.859375 9.90625 L 39.996094 19.039062 C 40.03125 23.644531 39.804688 28.25 39.3125 32.84375 Z M 39.3125 32.84375 "/>
<path style=" stroke:none;fill-rule:nonzero;fill:url(#linear4);" d="M 24.71875 15.667969 C 23.546875 14.390625 21.867188 13.59375 20 13.59375 C 16.460938 13.59375 13.59375 16.460938 13.59375 20 C 13.59375 21.867188 14.390625 23.546875 15.667969 24.71875 L 30.492188 39.542969 C 31.277344 39.476562 32.0625 39.398438 32.84375 39.3125 C 36.257812 38.953125 38.953125 36.257812 39.3125 32.84375 C 39.398438 32.0625 39.476562 31.277344 39.542969 30.492188 Z M 24.71875 15.667969 "/>
<path style=" stroke:none;fill-rule:nonzero;fill:url(#linear5);" d="M 39.921875 24.308594 L 27.992188 12.378906 C 27.714844 12.015625 27.273438 11.777344 26.78125 11.777344 C 25.9375 11.777344 25.257812 12.460938 25.257812 13.300781 C 25.257812 13.796875 25.492188 14.234375 25.859375 14.511719 L 39.710938 28.363281 C 39.804688 27.011719 39.875 25.660156 39.921875 24.308594 Z M 39.921875 24.308594 "/>
<path style=" stroke:none;fill-rule:nonzero;fill:url(#linear6);" d="M 7.429688 15.148438 C 7.511719 14.5625 7.578125 13.96875 7.679688 13.382812 C 8.28125 10.078125 10.625 7.824219 13.972656 7.710938 C 18.007812 7.570312 22.050781 7.5625 26.082031 7.710938 C 29.726562 7.839844 32.367188 10.539062 32.480469 14.1875 C 32.601562 18.054688 32.601562 21.9375 32.480469 25.8125 C 32.367188 29.457031 29.726562 32.15625 26.082031 32.289062 C 22.050781 32.429688 18.003906 32.4375 13.972656 32.285156 C 10.328125 32.148438 7.808594 29.445312 7.5625 25.789062 C 7.542969 25.476562 7.476562 25.164062 7.429688 24.847656 C 7.429688 21.617188 7.429688 18.382812 7.429688 15.148438 Z M 20.003906 30.125 C 21.847656 30.125 23.695312 30.179688 25.539062 30.113281 C 28.429688 30.007812 30.203125 28.28125 30.273438 25.394531 C 30.355469 21.796875 30.355469 18.195312 30.273438 14.601562 C 30.203125 11.714844 28.425781 9.953125 25.539062 9.890625 C 21.875 9.8125 18.203125 9.8125 14.539062 9.890625 C 11.671875 9.949219 9.890625 11.679688 9.8125 14.53125 C 9.710938 18.171875 9.710938 21.820312 9.8125 25.464844 C 9.890625 28.320312 11.671875 30.007812 14.539062 30.113281 C 16.359375 30.179688 18.179688 30.125 20.003906 30.125 Z M 20.003906 30.125 "/>
<path style=" stroke:none;fill-rule:nonzero;fill:rgb(100%,100%,100%);fill-opacity:1;" d="M 7.429688 15.148438 C 7.511719 14.5625 7.578125 13.96875 7.679688 13.382812 C 8.28125 10.078125 10.625 7.824219 13.972656 7.710938 C 18.007812 7.570312 22.050781 7.5625 26.082031 7.710938 C 29.726562 7.839844 32.367188 10.539062 32.480469 14.1875 C 32.601562 18.054688 32.601562 21.9375 32.480469 25.8125 C 32.367188 29.457031 29.726562 32.15625 26.082031 32.289062 C 22.050781 32.429688 18.003906 32.4375 13.972656 32.285156 C 10.328125 32.148438 7.808594 29.445312 7.5625 25.789062 C 7.542969 25.476562 7.476562 25.164062 7.429688 24.847656 C 7.429688 21.617188 7.429688 18.382812 7.429688 15.148438 Z M 20.003906 30.125 C 21.847656 30.125 23.695312 30.179688 25.539062 30.113281 C 28.429688 30.007812 30.203125 28.28125 30.273438 25.394531 C 30.355469 21.796875 30.355469 18.195312 30.273438 14.601562 C 30.203125 11.714844 28.425781 9.953125 25.539062 9.890625 C 21.875 9.8125 18.203125 9.8125 14.539062 9.890625 C 11.671875 9.949219 9.890625 11.679688 9.8125 14.53125 C 9.710938 18.171875 9.710938 21.820312 9.8125 25.464844 C 9.890625 28.320312 11.671875 30.007812 14.539062 30.113281 C 16.359375 30.179688 18.179688 30.125 20.003906 30.125 Z M 20.003906 30.125 "/>
<path style=" stroke:none;fill-rule:nonzero;fill:rgb(100%,100%,100%);fill-opacity:1;" d="M 20 13.59375 C 16.460938 13.59375 13.59375 16.460938 13.59375 20 C 13.59375 23.539062 16.460938 26.40625 20 26.40625 C 23.539062 26.40625 26.40625 23.539062 26.40625 20 C 26.40625 16.460938 23.539062 13.59375 20 13.59375 Z M 20 24.203125 C 17.679688 24.203125 15.796875 22.320312 15.796875 20 C 15.796875 17.679688 17.679688 15.796875 20 15.796875 C 22.320312 15.796875 24.203125 17.679688 24.203125 20 C 24.203125 22.320312 22.320312 24.203125 20 24.203125 Z M 20 24.203125 "/>
<path style=" stroke:none;fill-rule:nonzero;fill:rgb(100%,100%,100%);fill-opacity:1;" d="M 28.304688 13.300781 C 28.304688 14.140625 27.625 14.824219 26.78125 14.824219 C 25.9375 14.824219 25.257812 14.140625 25.257812 13.300781 C 25.257812 12.460938 25.9375 11.777344 26.78125 11.777344 C 27.625 11.777344 28.304688 12.460938 28.304688 13.300781 Z M 28.304688 13.300781 "/>
</g>
</svg>
