<?xml version="1.0" encoding="UTF-8"?>
<svg xmlns="http://www.w3.org/2000/svg" xmlns:xlink="http://www.w3.org/1999/xlink" width="20" height="22" viewBox="0 0 20 22" version="1.1">
<g id="surface1">
<path style=" stroke:none;fill-rule:nonzero;fill:rgb(0%,0%,0%);fill-opacity:1;" d="M 11.875 8.25 C 12.21875 8.25 12.5 7.941406 12.5 7.5625 L 12.5 3.4375 C 12.5 3.058594 12.21875 2.75 11.875 2.75 C 11.53125 2.75 11.25 3.058594 11.25 3.4375 L 11.25 7.5625 C 11.25 7.941406 11.53125 8.25 11.875 8.25 Z M 11.875 8.25 "/>
<path style=" stroke:none;fill-rule:nonzero;fill:rgb(0%,0%,0%);fill-opacity:1;" d="M 16.25 17.875 L 16.25 12.375 C 16.25 11.996094 15.96875 11.6875 15.625 11.6875 C 15.28125 11.6875 15 11.996094 15 12.375 L 15 17.1875 L 10.625 17.1875 L 10.625 15.734375 C 12.015625 15.398438 13.125 13.972656 13.125 12.375 C 13.125 11.996094 12.84375 11.6875 12.5 11.6875 L 7.5 11.6875 C 7.15625 11.6875 6.875 11.996094 6.875 12.375 C 6.875 13.972656 7.984375 15.398438 9.375 15.734375 L 9.375 17.1875 L 5 17.1875 L 5 12.375 C 5 11.996094 4.71875 11.6875 4.375 11.6875 C 4.03125 11.6875 3.75 11.996094 3.75 12.375 L 3.75 17.875 C 3.75 18.253906 4.03125 18.5625 4.375 18.5625 L 15.625 18.5625 C 15.96875 18.5625 16.25 18.253906 16.25 17.875 Z M 8.253906 13.0625 L 11.746094 13.0625 C 11.472656 13.792969 10.804688 14.4375 10 14.4375 C 9.191406 14.4375 8.527344 13.792969 8.253906 13.0625 Z M 8.253906 13.0625 "/>
<path style=" stroke:none;fill-rule:nonzero;fill:rgb(0%,0%,0%);fill-opacity:1;" d="M 13.75 21.3125 L 18.75 21.3125 C 19.09375 21.3125 19.375 21.003906 19.375 20.625 C 19.375 20.246094 19.09375 19.9375 18.75 19.9375 L 13.75 19.9375 C 13.40625 19.9375 13.125 20.246094 13.125 20.625 C 13.125 21.003906 13.40625 21.3125 13.75 21.3125 Z M 13.75 21.3125 "/>
<path style=" stroke:none;fill-rule:nonzero;fill:rgb(0%,0%,0%);fill-opacity:1;" d="M 10.625 19.9375 C 10.28125 19.9375 10 20.246094 10 20.625 C 10 21.003906 10.28125 21.3125 10.625 21.3125 L 11.875 21.3125 C 12.21875 21.3125 12.5 21.003906 12.5 20.625 C 12.5 20.246094 12.21875 19.9375 11.875 19.9375 Z M 10.625 19.9375 "/>
<path style=" stroke:none;fill-rule:nonzero;fill:rgb(0%,0%,0%);fill-opacity:1;" d="M 1.25 21.3125 L 8.75 21.3125 C 9.09375 21.3125 9.375 21.003906 9.375 20.625 C 9.375 20.246094 9.09375 19.9375 8.75 19.9375 L 1.25 19.9375 C 0.90625 19.9375 0.625 20.246094 0.625 20.625 C 0.625 21.003906 0.90625 21.3125 1.25 21.3125 Z M 1.25 21.3125 "/>
<path style=" stroke:none;fill-rule:nonzero;fill:rgb(0%,0%,0%);fill-opacity:1;" d="M 6.875 2.75 L 4.375 2.75 C 4.03125 2.75 3.75 3.058594 3.75 3.4375 L 3.75 7.5625 C 3.75 7.941406 4.03125 8.25 4.375 8.25 L 6.875 8.25 C 7.21875 8.25 7.5 7.941406 7.5 7.5625 L 7.5 3.4375 C 7.5 3.058594 7.21875 2.75 6.875 2.75 Z M 6.25 4.125 L 6.25 4.8125 L 5 4.8125 L 5 4.125 Z M 5 6.875 L 5 6.1875 L 6.25 6.1875 L 6.25 6.875 Z M 5 6.875 "/>
<path style=" stroke:none;fill-rule:nonzero;fill:rgb(0%,0%,0%);fill-opacity:1;" d="M 14.375 8.25 L 16.875 8.25 C 17.21875 8.25 17.5 7.941406 17.5 7.5625 L 17.5 3.4375 C 17.5 3.058594 17.21875 2.75 16.875 2.75 L 14.375 2.75 C 14.03125 2.75 13.75 3.058594 13.75 3.4375 L 13.75 7.5625 C 13.75 7.941406 14.03125 8.25 14.375 8.25 Z M 15 6.875 L 15 6.1875 L 16.25 6.1875 L 16.25 6.875 Z M 16.25 4.125 L 16.25 4.8125 L 15 4.8125 L 15 4.125 Z M 16.25 4.125 "/>
<path style=" stroke:none;fill-rule:nonzero;fill:rgb(0%,0%,0%);fill-opacity:1;" d="M 1.25 10.3125 L 18.75 10.3125 C 19.09375 10.3125 19.375 10.003906 19.375 9.625 L 19.375 1.375 C 19.375 0.996094 19.09375 0.6875 18.75 0.6875 L 1.25 0.6875 C 0.90625 0.6875 0.625 0.996094 0.625 1.375 L 0.625 9.625 C 0.625 10.003906 0.90625 10.3125 1.25 10.3125 Z M 18.125 8.9375 L 10.625 8.9375 L 10.625 2.0625 L 18.125 2.0625 Z M 1.875 2.0625 L 9.375 2.0625 L 9.375 8.9375 L 1.875 8.9375 Z M 1.875 2.0625 "/>
</g>
</svg>
