<?xml version="1.0" encoding="UTF-8"?>
<svg xmlns="http://www.w3.org/2000/svg" xmlns:xlink="http://www.w3.org/1999/xlink" width="22" height="20" viewBox="0 0 20 22" version="1.1">
<g id="surface1">
<path style=" stroke:none;fill-rule:nonzero;fill:rgb(0%,0%,0%);fill-opacity:1;" d="M 19.574219 1.808594 C 19.371094 1.214844 18.746094 0.59375 18.152344 0.398438 C 18.101562 0.382812 16.90625 0 15.050781 0 C 12.378906 0 8.394531 0.796875 4.589844 4.601562 C 3.128906 6.0625 2.003906 7.679688 1.234375 9.414062 C 0.621094 10.800781 0.234375 12.265625 0.0898438 13.765625 C -0.15625 16.324219 0.375 18.082031 0.398438 18.15625 C 0.585938 18.757812 1.195312 19.386719 1.792969 19.589844 C 1.84375 19.609375 3.050781 20.015625 4.9375 20.015625 C 7.578125 20.015625 11.527344 19.210938 15.363281 15.378906 C 16.859375 13.882812 18.011719 12.238281 18.789062 10.5 C 19.414062 9.101562 19.800781 7.636719 19.933594 6.148438 C 20.167969 3.605469 19.597656 1.878906 19.574219 1.808594 Z M 19.273438 6.042969 C 18.585938 5.027344 17.832031 4.082031 16.980469 3.160156 L 18.625 1.515625 C 18.769531 1.675781 18.886719 1.855469 18.941406 2.023438 C 18.949219 2.039062 19.484375 3.664062 19.273438 6.042969 Z M 17.945312 1.035156 C 18.109375 1.089844 18.289062 1.199219 18.449219 1.34375 L 16.8125 2.980469 C 16.628906 2.785156 16.441406 2.589844 16.246094 2.398438 C 15.636719 1.789062 15.007812 1.21875 14.355469 0.6875 C 14.59375 0.671875 14.828125 0.667969 15.050781 0.667969 C 16.792969 0.667969 17.933594 1.03125 17.945312 1.035156 Z M 5.058594 5.074219 C 7.070312 3.066406 9.128906 1.929688 10.996094 1.320312 C 12.207031 2.164062 13.359375 3.125 14.4375 4.207031 C 14.628906 4.398438 14.820312 4.59375 15.003906 4.789062 L 13.269531 6.519531 L 13.246094 6.496094 C 13.25 6.488281 13.257812 6.480469 13.261719 6.472656 L 13.335938 6.351562 C 13.371094 6.296875 13.355469 6.222656 13.296875 6.1875 C 13.242188 6.152344 13.167969 6.171875 13.136719 6.226562 L 13.074219 6.324219 L 12.816406 6.066406 L 12.628906 5.875 C 12.582031 5.832031 12.527344 5.808594 12.46875 5.808594 C 12.410156 5.808594 12.351562 5.832031 12.308594 5.875 C 12.222656 5.964844 12.222656 6.105469 12.308594 6.195312 L 12.488281 6.375 L 12.746094 6.628906 L 12.132812 7.242188 L 11.695312 6.804688 C 11.652344 6.761719 11.59375 6.738281 11.539062 6.738281 C 11.480469 6.738281 11.421875 6.761719 11.378906 6.804688 C 11.289062 6.894531 11.289062 7.035156 11.378906 7.125 L 11.8125 7.558594 L 11.203125 8.171875 L 10.957031 7.925781 L 10.765625 7.738281 C 10.722656 7.691406 10.664062 7.671875 10.605469 7.671875 C 10.550781 7.671875 10.492188 7.691406 10.449219 7.738281 C 10.359375 7.824219 10.359375 7.964844 10.449219 8.054688 L 10.882812 8.488281 L 10.269531 9.101562 L 9.835938 8.667969 C 9.792969 8.625 9.734375 8.601562 9.675781 8.601562 C 9.617188 8.601562 9.5625 8.625 9.515625 8.667969 C 9.429688 8.753906 9.429688 8.898438 9.515625 8.984375 L 9.953125 9.421875 L 9.339844 10.03125 L 8.90625 9.597656 C 8.859375 9.554688 8.804688 9.53125 8.746094 9.53125 C 8.6875 9.53125 8.628906 9.554688 8.585938 9.597656 C 8.5 9.683594 8.5 9.828125 8.585938 9.914062 L 9.023438 10.351562 L 8.410156 10.964844 L 7.972656 10.527344 C 7.929688 10.484375 7.871094 10.460938 7.816406 10.460938 C 7.757812 10.460938 7.699219 10.484375 7.65625 10.527344 C 7.566406 10.617188 7.566406 10.757812 7.65625 10.847656 L 7.839844 11.027344 L 8.089844 11.28125 L 7.480469 11.894531 L 7.230469 11.648438 L 7.042969 11.457031 C 7 11.414062 6.941406 11.394531 6.882812 11.394531 C 6.828125 11.394531 6.769531 11.414062 6.726562 11.457031 C 6.636719 11.546875 6.636719 11.6875 6.726562 11.777344 L 7.160156 12.210938 L 6.546875 12.824219 L 6.113281 12.390625 C 6.070312 12.34375 6.011719 12.324219 5.953125 12.324219 C 5.894531 12.324219 5.839844 12.34375 5.796875 12.390625 C 5.707031 12.476562 5.707031 12.621094 5.796875 12.707031 L 6.242188 13.152344 L 6.160156 13.203125 C 6.101562 13.238281 6.085938 13.3125 6.121094 13.367188 C 6.140625 13.402344 6.179688 13.421875 6.222656 13.421875 C 6.242188 13.421875 6.265625 13.417969 6.285156 13.40625 L 6.40625 13.332031 C 6.40625 13.328125 6.410156 13.328125 6.414062 13.324219 L 6.4375 13.351562 L 4.816406 14.976562 C 4.617188 14.792969 4.425781 14.605469 4.230469 14.410156 C 3.152344 13.332031 2.195312 12.183594 1.347656 10.976562 C 1.492188 10.539062 1.65625 10.105469 1.84375 9.683594 C 2.578125 8.023438 3.660156 6.476562 5.058594 5.074219 Z M 0.714844 14.332031 C 1.246094 14.980469 1.816406 15.613281 2.425781 16.21875 C 2.617188 16.410156 2.808594 16.601562 3.007812 16.785156 L 1.332031 18.460938 C 1.195312 18.300781 1.085938 18.125 1.035156 17.957031 C 1.03125 17.941406 0.589844 16.484375 0.714844 14.332031 Z M 2.007812 18.960938 C 1.839844 18.902344 1.660156 18.785156 1.503906 18.636719 L 3.1875 16.953125 C 4.125 17.816406 5.109375 18.59375 6.132812 19.289062 C 5.710938 19.332031 5.308594 19.347656 4.9375 19.347656 C 3.167969 19.347656 2.019531 18.964844 2.007812 18.960938 Z M 14.890625 14.90625 C 13.074219 16.722656 11.234375 17.828125 9.535156 18.480469 C 7.933594 17.558594 6.410156 16.445312 4.996094 15.144531 L 6.53125 13.609375 L 6.515625 13.636719 C 6.480469 13.691406 6.496094 13.765625 6.554688 13.800781 C 6.574219 13.8125 6.59375 13.816406 6.617188 13.816406 C 6.65625 13.816406 6.695312 13.796875 6.71875 13.761719 L 6.765625 13.679688 L 7.238281 14.148438 C 7.28125 14.195312 7.339844 14.214844 7.394531 14.214844 C 7.453125 14.214844 7.511719 14.195312 7.554688 14.148438 C 7.644531 14.0625 7.644531 13.917969 7.554688 13.832031 L 7.140625 13.417969 L 7.753906 12.804688 L 8.167969 13.21875 C 8.210938 13.261719 8.269531 13.285156 8.328125 13.285156 C 8.382812 13.285156 8.441406 13.261719 8.484375 13.21875 C 8.574219 13.132812 8.574219 12.988281 8.484375 12.902344 L 8.070312 12.488281 L 8.683594 11.875 L 9.097656 12.289062 C 9.140625 12.332031 9.199219 12.355469 9.257812 12.355469 C 9.316406 12.355469 9.371094 12.332031 9.417969 12.289062 C 9.503906 12.199219 9.503906 12.058594 9.417969 11.96875 L 9.25 11.804688 L 9.003906 11.554688 L 9.613281 10.945312 L 10.027344 11.359375 C 10.074219 11.402344 10.128906 11.421875 10.1875 11.421875 C 10.246094 11.421875 10.304688 11.402344 10.347656 11.359375 C 10.433594 11.269531 10.433594 11.128906 10.347656 11.039062 L 9.933594 10.625 L 10.546875 10.011719 L 10.960938 10.425781 C 11.003906 10.472656 11.0625 10.492188 11.117188 10.492188 C 11.175781 10.492188 11.234375 10.472656 11.277344 10.425781 C 11.363281 10.339844 11.363281 10.195312 11.277344 10.109375 L 10.863281 9.695312 L 11.476562 9.082031 L 11.890625 9.496094 C 11.933594 9.539062 11.992188 9.5625 12.046875 9.5625 C 12.105469 9.5625 12.164062 9.539062 12.207031 9.496094 C 12.296875 9.410156 12.296875 9.265625 12.207031 9.179688 L 11.792969 8.765625 L 12.40625 8.152344 L 12.820312 8.566406 C 12.863281 8.609375 12.921875 8.632812 12.980469 8.632812 C 13.035156 8.632812 13.09375 8.609375 13.136719 8.566406 C 13.226562 8.476562 13.226562 8.335938 13.136719 8.246094 L 12.96875 8.078125 L 12.722656 7.835938 L 13.335938 7.222656 L 13.75 7.636719 C 13.792969 7.679688 13.851562 7.703125 13.910156 7.703125 C 13.96875 7.703125 14.023438 7.679688 14.070312 7.636719 C 14.15625 7.546875 14.15625 7.40625 14.070312 7.316406 L 13.898438 7.148438 L 13.597656 6.84375 L 13.691406 6.785156 C 13.75 6.75 13.765625 6.675781 13.730469 6.621094 C 13.699219 6.566406 13.625 6.546875 13.566406 6.582031 L 13.542969 6.597656 L 15.171875 4.96875 C 16.46875 6.375 17.566406 7.871094 18.488281 9.472656 C 18.394531 9.726562 18.292969 9.976562 18.179688 10.226562 C 17.4375 11.894531 16.328125 13.46875 14.890625 14.90625 Z M 14.890625 14.90625 "/>
<path style=" stroke:none;fill-rule:nonzero;fill:rgb(0%,0%,0%);fill-opacity:1;" d="M 14.316406 6.402344 C 14.34375 6.382812 14.359375 6.359375 14.367188 6.328125 C 14.375 6.296875 14.371094 6.265625 14.355469 6.238281 C 14.332031 6.203125 14.292969 6.179688 14.253906 6.179688 C 14.230469 6.179688 14.207031 6.1875 14.191406 6.199219 L 13.957031 6.34375 C 13.902344 6.378906 13.882812 6.449219 13.917969 6.507812 C 13.941406 6.542969 13.976562 6.5625 14.019531 6.5625 C 14.042969 6.5625 14.0625 6.554688 14.082031 6.546875 Z M 14.316406 6.402344 "/>
<path style=" stroke:none;fill-rule:nonzero;fill:rgb(0%,0%,0%);fill-opacity:1;" d="M 14.941406 6.046875 C 14.894531 5.964844 14.863281 5.917969 14.859375 5.917969 C 14.824219 5.863281 14.753906 5.851562 14.699219 5.882812 L 14.578125 5.957031 C 14.570312 5.964844 14.5625 5.96875 14.558594 5.976562 C 14.554688 5.976562 14.554688 5.980469 14.550781 5.984375 C 14.546875 5.988281 14.542969 5.992188 14.539062 5.996094 C 14.539062 6 14.535156 6.003906 14.535156 6.007812 C 14.53125 6.011719 14.53125 6.019531 14.527344 6.023438 C 14.527344 6.027344 14.527344 6.027344 14.527344 6.03125 C 14.523438 6.039062 14.523438 6.046875 14.523438 6.058594 C 14.523438 6.058594 14.523438 6.058594 14.523438 6.0625 C 14.523438 6.0625 14.523438 6.066406 14.523438 6.066406 C 14.523438 6.074219 14.523438 6.082031 14.527344 6.089844 C 14.527344 6.089844 14.527344 6.09375 14.527344 6.09375 C 14.53125 6.101562 14.535156 6.109375 14.535156 6.117188 C 14.539062 6.117188 14.539062 6.121094 14.539062 6.121094 C 14.542969 6.125 14.542969 6.128906 14.546875 6.128906 C 14.550781 6.136719 14.554688 6.140625 14.554688 6.144531 C 14.558594 6.144531 14.5625 6.148438 14.566406 6.152344 C 14.570312 6.152344 14.574219 6.15625 14.578125 6.160156 C 14.582031 6.164062 14.585938 6.164062 14.585938 6.164062 C 14.59375 6.167969 14.601562 6.171875 14.609375 6.175781 C 14.609375 6.175781 14.609375 6.175781 14.613281 6.175781 C 14.621094 6.175781 14.632812 6.179688 14.640625 6.179688 C 14.640625 6.179688 14.644531 6.179688 14.644531 6.179688 C 14.652344 6.179688 14.660156 6.175781 14.667969 6.175781 C 14.671875 6.175781 14.675781 6.175781 14.675781 6.171875 C 14.683594 6.171875 14.691406 6.167969 14.699219 6.164062 C 14.699219 6.164062 14.703125 6.164062 14.703125 6.160156 L 14.722656 6.148438 C 14.726562 6.152344 14.730469 6.160156 14.734375 6.164062 C 14.757812 6.203125 14.796875 6.226562 14.835938 6.226562 C 14.859375 6.226562 14.878906 6.21875 14.894531 6.210938 C 14.953125 6.175781 14.972656 6.105469 14.941406 6.046875 Z M 14.941406 6.046875 "/>
<path style=" stroke:none;fill-rule:nonzero;fill:rgb(0%,0%,0%);fill-opacity:1;" d="M 6.796875 15.085938 C 6.710938 15.0625 6.621094 15.035156 6.53125 15.003906 C 6.472656 14.980469 6.402344 15.015625 6.378906 15.074219 C 6.367188 15.105469 6.371094 15.136719 6.382812 15.164062 C 6.394531 15.195312 6.417969 15.214844 6.449219 15.226562 C 6.546875 15.261719 6.640625 15.292969 6.738281 15.316406 C 6.746094 15.320312 6.757812 15.320312 6.765625 15.320312 C 6.820312 15.320312 6.867188 15.285156 6.882812 15.230469 C 6.886719 15.222656 6.886719 15.210938 6.886719 15.203125 C 6.886719 15.148438 6.851562 15.101562 6.796875 15.085938 Z M 6.796875 15.085938 "/>
<path style=" stroke:none;fill-rule:nonzero;fill:rgb(0%,0%,0%);fill-opacity:1;" d="M 6.109375 14.808594 L 6.105469 14.808594 C 6.101562 14.804688 6.101562 14.804688 6.097656 14.804688 C 6.097656 14.800781 6.097656 14.800781 6.097656 14.800781 C 6.089844 14.800781 6.085938 14.796875 6.082031 14.792969 L 6.09375 14.773438 C 6.128906 14.714844 6.109375 14.644531 6.054688 14.609375 C 6 14.574219 5.925781 14.589844 5.890625 14.648438 L 5.816406 14.769531 C 5.78125 14.824219 5.796875 14.894531 5.847656 14.929688 C 5.851562 14.929688 5.898438 14.960938 5.976562 15.007812 C 5.976562 15.007812 5.976562 15.007812 5.980469 15.007812 L 5.980469 15.011719 C 5.984375 15.011719 5.988281 15.015625 5.992188 15.015625 C 6.011719 15.027344 6.03125 15.03125 6.050781 15.03125 C 6.09375 15.03125 6.132812 15.007812 6.15625 14.972656 C 6.164062 14.953125 6.171875 14.933594 6.171875 14.914062 C 6.171875 14.871094 6.148438 14.832031 6.109375 14.808594 Z M 6.109375 14.808594 "/>
<path style=" stroke:none;fill-rule:nonzero;fill:rgb(0%,0%,0%);fill-opacity:1;" d="M 14.183594 9.222656 C 14.113281 9.285156 14.042969 9.347656 13.96875 9.410156 C 13.945312 9.429688 13.929688 9.457031 13.925781 9.488281 C 13.925781 9.519531 13.933594 9.550781 13.953125 9.574219 C 13.976562 9.601562 14.011719 9.621094 14.046875 9.621094 C 14.074219 9.621094 14.101562 9.609375 14.121094 9.589844 C 14.195312 9.53125 14.269531 9.464844 14.34375 9.398438 C 14.371094 9.375 14.382812 9.34375 14.382812 9.308594 C 14.382812 9.28125 14.371094 9.25 14.351562 9.230469 C 14.308594 9.183594 14.230469 9.179688 14.183594 9.222656 Z M 14.183594 9.222656 "/>
<path style=" stroke:none;fill-rule:nonzero;fill:rgb(0%,0%,0%);fill-opacity:1;" d="M 8.230469 14.992188 C 8.148438 15.03125 8.0625 15.0625 7.976562 15.089844 C 7.945312 15.097656 7.917969 15.117188 7.90625 15.144531 C 7.890625 15.171875 7.886719 15.207031 7.894531 15.234375 C 7.910156 15.285156 7.957031 15.320312 8.007812 15.320312 C 8.019531 15.320312 8.03125 15.320312 8.042969 15.316406 C 8.140625 15.289062 8.234375 15.253906 8.328125 15.210938 C 8.371094 15.191406 8.398438 15.148438 8.398438 15.101562 C 8.398438 15.085938 8.394531 15.066406 8.390625 15.050781 C 8.363281 14.996094 8.289062 14.964844 8.230469 14.992188 Z M 8.230469 14.992188 "/>
<path style=" stroke:none;fill-rule:nonzero;fill:rgb(0%,0%,0%);fill-opacity:1;" d="M 7.527344 15.164062 C 7.441406 15.171875 7.34375 15.167969 7.253906 15.164062 C 7.1875 15.160156 7.128906 15.207031 7.125 15.273438 C 7.121094 15.304688 7.132812 15.335938 7.152344 15.359375 C 7.175781 15.382812 7.203125 15.398438 7.234375 15.398438 C 7.292969 15.40625 7.351562 15.40625 7.40625 15.40625 C 7.453125 15.40625 7.496094 15.40625 7.539062 15.402344 C 7.601562 15.398438 7.652344 15.347656 7.652344 15.285156 C 7.652344 15.28125 7.652344 15.28125 7.652344 15.277344 C 7.648438 15.210938 7.59375 15.160156 7.527344 15.164062 Z M 7.527344 15.164062 "/>
<path style=" stroke:none;fill-rule:nonzero;fill:rgb(0%,0%,0%);fill-opacity:1;" d="M 15.203125 7.175781 C 15.140625 7.183594 15.09375 7.234375 15.09375 7.296875 C 15.09375 7.300781 15.09375 7.300781 15.09375 7.304688 C 15.097656 7.363281 15.101562 7.421875 15.101562 7.476562 C 15.101562 7.511719 15.097656 7.546875 15.097656 7.582031 C 15.097656 7.613281 15.105469 7.640625 15.128906 7.664062 C 15.148438 7.6875 15.179688 7.703125 15.210938 7.703125 C 15.210938 7.703125 15.214844 7.703125 15.214844 7.703125 C 15.28125 7.703125 15.332031 7.65625 15.335938 7.59375 C 15.335938 7.554688 15.339844 7.515625 15.339844 7.476562 C 15.339844 7.414062 15.335938 7.347656 15.332031 7.285156 C 15.324219 7.222656 15.269531 7.171875 15.203125 7.175781 Z M 15.203125 7.175781 "/>
<path style=" stroke:none;fill-rule:nonzero;fill:rgb(0%,0%,0%);fill-opacity:1;" d="M 14.929688 6.585938 C 14.960938 6.675781 14.992188 6.761719 15.015625 6.851562 C 15.027344 6.902344 15.074219 6.941406 15.128906 6.941406 C 15.140625 6.941406 15.152344 6.9375 15.160156 6.933594 C 15.222656 6.917969 15.261719 6.851562 15.246094 6.789062 C 15.21875 6.695312 15.1875 6.597656 15.152344 6.503906 C 15.128906 6.441406 15.058594 6.410156 15 6.433594 C 14.96875 6.445312 14.945312 6.464844 14.933594 6.496094 C 14.917969 6.523438 14.917969 6.554688 14.929688 6.585938 Z M 14.929688 6.585938 "/>
<path style=" stroke:none;fill-rule:nonzero;fill:rgb(0%,0%,0%);fill-opacity:1;" d="M 8.835938 14.582031 C 8.765625 14.644531 8.695312 14.707031 8.625 14.757812 C 8.597656 14.777344 8.582031 14.804688 8.578125 14.839844 C 8.574219 14.871094 8.582031 14.902344 8.601562 14.925781 C 8.621094 14.957031 8.65625 14.972656 8.695312 14.972656 C 8.722656 14.972656 8.746094 14.964844 8.765625 14.949219 C 8.84375 14.890625 8.921875 14.824219 9 14.753906 C 9.023438 14.730469 9.035156 14.703125 9.035156 14.667969 C 9.035156 14.636719 9.023438 14.609375 9.003906 14.585938 C 8.960938 14.539062 8.882812 14.539062 8.835938 14.582031 Z M 8.835938 14.582031 "/>
<path style=" stroke:none;fill-rule:nonzero;fill:rgb(0%,0%,0%);fill-opacity:1;" d="M 15.171875 7.949219 C 15.109375 7.929688 15.042969 7.96875 15.023438 8.027344 C 15 8.117188 14.96875 8.203125 14.929688 8.285156 C 14.917969 8.316406 14.917969 8.347656 14.929688 8.375 C 14.941406 8.40625 14.960938 8.429688 14.992188 8.441406 C 15.007812 8.449219 15.023438 8.453125 15.039062 8.453125 C 15.085938 8.453125 15.128906 8.425781 15.148438 8.382812 C 15.191406 8.289062 15.226562 8.191406 15.253906 8.09375 C 15.257812 8.082031 15.257812 8.074219 15.257812 8.0625 C 15.257812 8.007812 15.222656 7.960938 15.171875 7.949219 Z M 15.171875 7.949219 "/>
<path style=" stroke:none;fill-rule:nonzero;fill:rgb(0%,0%,0%);fill-opacity:1;" d="M 14.867188 8.65625 C 14.816406 8.617188 14.738281 8.628906 14.699219 8.679688 C 14.648438 8.75 14.589844 8.824219 14.523438 8.890625 C 14.503906 8.914062 14.492188 8.945312 14.492188 8.976562 C 14.492188 9.007812 14.507812 9.039062 14.53125 9.0625 C 14.550781 9.082031 14.582031 9.09375 14.609375 9.09375 C 14.644531 9.09375 14.675781 9.078125 14.699219 9.054688 C 14.765625 8.980469 14.832031 8.902344 14.886719 8.824219 C 14.890625 8.824219 14.890625 8.824219 14.890625 8.820312 C 14.90625 8.800781 14.914062 8.777344 14.914062 8.75 C 14.914062 8.710938 14.898438 8.675781 14.867188 8.65625 Z M 14.867188 8.65625 "/>
<path style=" stroke:none;fill-rule:nonzero;fill:rgb(0%,0%,0%);fill-opacity:1;" d="M 11.046875 11.449219 C 10.976562 11.523438 10.910156 11.597656 10.847656 11.667969 C 10.828125 11.691406 10.816406 11.722656 10.820312 11.753906 C 10.820312 11.785156 10.835938 11.816406 10.859375 11.835938 C 10.882812 11.855469 10.910156 11.867188 10.9375 11.867188 C 10.972656 11.867188 11.007812 11.851562 11.027344 11.824219 C 11.085938 11.757812 11.152344 11.6875 11.21875 11.617188 C 11.21875 11.617188 11.21875 11.617188 11.21875 11.613281 C 11.242188 11.59375 11.253906 11.5625 11.253906 11.53125 C 11.253906 11.5 11.238281 11.46875 11.214844 11.445312 C 11.171875 11.402344 11.09375 11.402344 11.046875 11.449219 Z M 11.046875 11.449219 "/>
<path style=" stroke:none;fill-rule:nonzero;fill:rgb(0%,0%,0%);fill-opacity:1;" d="M 10.308594 12.6875 C 10.25 12.65625 10.175781 12.679688 10.144531 12.738281 C 10.125 12.777344 10.105469 12.816406 10.085938 12.855469 C 10.066406 12.902344 10.039062 12.949219 10.015625 12.996094 C 10 13.023438 10 13.058594 10.007812 13.085938 C 10.019531 13.117188 10.039062 13.140625 10.066406 13.15625 C 10.085938 13.164062 10.101562 13.171875 10.121094 13.171875 C 10.167969 13.171875 10.207031 13.144531 10.226562 13.105469 C 10.25 13.058594 10.273438 13.011719 10.296875 12.96875 C 10.316406 12.925781 10.339844 12.886719 10.359375 12.847656 C 10.367188 12.828125 10.371094 12.8125 10.371094 12.792969 C 10.371094 12.746094 10.347656 12.707031 10.308594 12.6875 Z M 10.308594 12.6875 "/>
<path style=" stroke:none;fill-rule:nonzero;fill:rgb(0%,0%,0%);fill-opacity:1;" d="M 12.996094 10.0625 C 12.976562 10.0625 12.960938 10.070312 12.941406 10.078125 C 12.890625 10.101562 12.839844 10.128906 12.789062 10.152344 C 12.753906 10.171875 12.71875 10.191406 12.683594 10.207031 C 12.65625 10.222656 12.636719 10.246094 12.625 10.277344 C 12.617188 10.308594 12.617188 10.339844 12.632812 10.367188 C 12.652344 10.40625 12.695312 10.433594 12.738281 10.433594 C 12.757812 10.433594 12.777344 10.429688 12.792969 10.421875 C 12.824219 10.402344 12.855469 10.386719 12.886719 10.371094 C 12.941406 10.34375 12.996094 10.316406 13.050781 10.289062 C 13.089844 10.269531 13.117188 10.226562 13.117188 10.183594 C 13.117188 10.164062 13.109375 10.144531 13.101562 10.128906 C 13.082031 10.089844 13.042969 10.0625 12.996094 10.0625 Z M 12.996094 10.0625 "/>
<path style=" stroke:none;fill-rule:nonzero;fill:rgb(0%,0%,0%);fill-opacity:1;" d="M 10.710938 12.027344 C 10.65625 11.992188 10.582031 12.007812 10.542969 12.058594 C 10.488281 12.140625 10.433594 12.21875 10.382812 12.308594 C 10.367188 12.335938 10.359375 12.367188 10.367188 12.398438 C 10.375 12.429688 10.394531 12.453125 10.421875 12.472656 C 10.441406 12.484375 10.460938 12.488281 10.484375 12.488281 C 10.527344 12.488281 10.566406 12.46875 10.585938 12.429688 C 10.636719 12.351562 10.683594 12.273438 10.738281 12.195312 C 10.753906 12.175781 10.761719 12.148438 10.761719 12.125 C 10.761719 12.085938 10.742188 12.050781 10.710938 12.027344 Z M 10.710938 12.027344 "/>
<path style=" stroke:none;fill-rule:nonzero;fill:rgb(0%,0%,0%);fill-opacity:1;" d="M 12.253906 10.441406 C 12.167969 10.492188 12.085938 10.546875 12.003906 10.601562 C 11.949219 10.640625 11.9375 10.714844 11.972656 10.769531 C 11.996094 10.800781 12.03125 10.820312 12.070312 10.820312 C 12.097656 10.820312 12.117188 10.8125 12.140625 10.796875 C 12.214844 10.746094 12.292969 10.695312 12.375 10.644531 C 12.410156 10.625 12.433594 10.585938 12.433594 10.542969 C 12.433594 10.523438 12.429688 10.5 12.417969 10.484375 C 12.382812 10.429688 12.308594 10.410156 12.253906 10.441406 Z M 12.253906 10.441406 "/>
<path style=" stroke:none;fill-rule:nonzero;fill:rgb(0%,0%,0%);fill-opacity:1;" d="M 11.613281 10.90625 C 11.539062 10.96875 11.464844 11.035156 11.394531 11.105469 C 11.347656 11.152344 11.34375 11.226562 11.390625 11.273438 C 11.414062 11.296875 11.441406 11.308594 11.476562 11.308594 C 11.507812 11.308594 11.535156 11.296875 11.558594 11.277344 C 11.628906 11.210938 11.699219 11.144531 11.769531 11.085938 C 11.792969 11.0625 11.808594 11.03125 11.808594 10.996094 C 11.808594 10.96875 11.800781 10.941406 11.78125 10.917969 C 11.738281 10.871094 11.660156 10.863281 11.613281 10.90625 Z M 11.613281 10.90625 "/>
<path style=" stroke:none;fill-rule:nonzero;fill:rgb(0%,0%,0%);fill-opacity:1;" d="M 13.59375 9.695312 C 13.515625 9.75 13.4375 9.796875 13.355469 9.847656 C 13.328125 9.863281 13.3125 9.890625 13.304688 9.921875 C 13.296875 9.953125 13.300781 9.984375 13.316406 10.011719 C 13.339844 10.046875 13.378906 10.070312 13.417969 10.070312 C 13.441406 10.070312 13.460938 10.0625 13.480469 10.050781 C 13.566406 10 13.648438 9.945312 13.730469 9.890625 C 13.761719 9.867188 13.78125 9.832031 13.78125 9.789062 C 13.78125 9.765625 13.773438 9.742188 13.761719 9.722656 C 13.722656 9.671875 13.644531 9.65625 13.59375 9.695312 Z M 13.59375 9.695312 "/>
<path style=" stroke:none;fill-rule:nonzero;fill:rgb(0%,0%,0%);fill-opacity:1;" d="M 9.351562 14.027344 C 9.289062 14.097656 9.226562 14.171875 9.164062 14.242188 C 9.144531 14.265625 9.132812 14.296875 9.132812 14.328125 C 9.132812 14.359375 9.148438 14.386719 9.171875 14.410156 C 9.195312 14.429688 9.222656 14.441406 9.253906 14.441406 C 9.285156 14.441406 9.316406 14.425781 9.339844 14.402344 C 9.410156 14.324219 9.472656 14.25 9.535156 14.179688 C 9.550781 14.15625 9.5625 14.128906 9.5625 14.101562 C 9.5625 14.066406 9.546875 14.03125 9.515625 14.011719 C 9.46875 13.96875 9.390625 13.976562 9.351562 14.027344 Z M 9.351562 14.027344 "/>
<path style=" stroke:none;fill-rule:nonzero;fill:rgb(0%,0%,0%);fill-opacity:1;" d="M 9.949219 13.371094 C 9.894531 13.339844 9.820312 13.359375 9.789062 13.410156 L 9.789062 13.414062 C 9.738281 13.496094 9.6875 13.574219 9.632812 13.648438 C 9.617188 13.675781 9.609375 13.707031 9.617188 13.738281 C 9.621094 13.769531 9.640625 13.796875 9.664062 13.816406 C 9.683594 13.828125 9.707031 13.835938 9.734375 13.835938 C 9.773438 13.835938 9.808594 13.816406 9.832031 13.785156 C 9.886719 13.699219 9.941406 13.621094 9.992188 13.535156 C 10.003906 13.515625 10.007812 13.496094 10.007812 13.472656 C 10.007812 13.429688 9.988281 13.394531 9.949219 13.371094 Z M 9.949219 13.371094 "/>
<path style=" stroke:none;fill-rule:nonzero;fill:rgb(0%,0%,0%);fill-opacity:1;" d="M 6.4375 13.984375 C 6.417969 13.976562 6.398438 13.96875 6.375 13.96875 C 6.332031 13.96875 6.296875 13.988281 6.273438 14.023438 L 6.128906 14.257812 C 6.113281 14.285156 6.109375 14.316406 6.117188 14.347656 C 6.125 14.378906 6.140625 14.40625 6.167969 14.421875 C 6.1875 14.433594 6.210938 14.441406 6.230469 14.441406 C 6.273438 14.441406 6.3125 14.417969 6.332031 14.382812 L 6.476562 14.152344 C 6.511719 14.09375 6.492188 14.019531 6.4375 13.984375 Z M 6.4375 13.984375 "/>
<path style=" stroke:none;fill-rule:nonzero;fill:rgb(0%,0%,0%);fill-opacity:1;" d="M 13.414062 6 C 13.433594 6.015625 13.453125 6.019531 13.476562 6.019531 C 13.519531 6.019531 13.554688 6 13.578125 5.964844 L 13.722656 5.730469 C 13.738281 5.703125 13.742188 5.671875 13.734375 5.640625 C 13.730469 5.609375 13.710938 5.582031 13.683594 5.566406 C 13.664062 5.554688 13.644531 5.546875 13.621094 5.546875 C 13.578125 5.546875 13.539062 5.570312 13.519531 5.605469 L 13.375 5.839844 C 13.339844 5.894531 13.359375 5.96875 13.414062 6 Z M 13.414062 6 "/>
<path style=" stroke:none;fill-rule:nonzero;fill:rgb(0%,0%,0%);fill-opacity:1;" d="M 13.753906 5.1875 C 13.761719 5.191406 13.765625 5.191406 13.773438 5.195312 L 13.757812 5.214844 C 13.753906 5.226562 13.75 5.234375 13.746094 5.242188 C 13.746094 5.246094 13.746094 5.246094 13.746094 5.25 C 13.742188 5.257812 13.742188 5.265625 13.742188 5.273438 C 13.742188 5.273438 13.742188 5.277344 13.742188 5.277344 C 13.742188 5.277344 13.742188 5.28125 13.742188 5.28125 C 13.742188 5.289062 13.742188 5.296875 13.746094 5.304688 C 13.746094 5.308594 13.746094 5.3125 13.75 5.316406 C 13.75 5.320312 13.75 5.328125 13.753906 5.332031 C 13.753906 5.335938 13.757812 5.339844 13.761719 5.34375 C 13.761719 5.347656 13.765625 5.351562 13.769531 5.355469 C 13.773438 5.359375 13.773438 5.359375 13.777344 5.363281 C 13.78125 5.371094 13.789062 5.375 13.796875 5.378906 C 13.800781 5.382812 13.804688 5.382812 13.808594 5.386719 C 13.816406 5.386719 13.820312 5.390625 13.828125 5.394531 C 13.839844 5.394531 13.851562 5.398438 13.859375 5.398438 C 13.878906 5.398438 13.898438 5.394531 13.917969 5.382812 C 13.921875 5.378906 13.929688 5.375 13.933594 5.371094 C 13.945312 5.363281 13.953125 5.355469 13.960938 5.339844 L 14.035156 5.21875 C 14.070312 5.164062 14.054688 5.09375 14.003906 5.058594 C 14 5.058594 13.953125 5.027344 13.871094 4.980469 C 13.816406 4.945312 13.742188 4.964844 13.710938 5.023438 C 13.679688 5.082031 13.699219 5.152344 13.753906 5.1875 Z M 13.753906 5.1875 "/>
<path style=" stroke:none;fill-rule:nonzero;fill:rgb(0%,0%,0%);fill-opacity:1;" d="M 9.550781 7.289062 C 9.570312 7.296875 9.589844 7.300781 9.605469 7.300781 C 9.652344 7.300781 9.691406 7.277344 9.710938 7.234375 C 9.730469 7.199219 9.75 7.164062 9.765625 7.128906 C 9.792969 7.078125 9.816406 7.027344 9.84375 6.976562 C 9.851562 6.960938 9.855469 6.941406 9.855469 6.921875 C 9.855469 6.878906 9.832031 6.839844 9.792969 6.816406 C 9.734375 6.789062 9.660156 6.8125 9.632812 6.867188 C 9.601562 6.925781 9.574219 6.980469 9.546875 7.035156 C 9.53125 7.066406 9.515625 7.097656 9.5 7.128906 C 9.484375 7.15625 9.484375 7.1875 9.492188 7.21875 C 9.503906 7.25 9.523438 7.273438 9.550781 7.289062 Z M 9.550781 7.289062 "/>
<path style=" stroke:none;fill-rule:nonzero;fill:rgb(0%,0%,0%);fill-opacity:1;" d="M 9.152344 7.945312 C 9.171875 7.960938 9.195312 7.96875 9.21875 7.96875 C 9.257812 7.96875 9.296875 7.949219 9.316406 7.917969 C 9.375 7.835938 9.425781 7.753906 9.476562 7.667969 C 9.488281 7.648438 9.496094 7.625 9.496094 7.605469 C 9.496094 7.5625 9.472656 7.523438 9.4375 7.503906 C 9.382812 7.472656 9.304688 7.488281 9.273438 7.542969 C 9.226562 7.625 9.175781 7.703125 9.121094 7.78125 C 9.085938 7.835938 9.097656 7.910156 9.152344 7.945312 Z M 9.152344 7.945312 "/>
<path style=" stroke:none;fill-rule:nonzero;fill:rgb(0%,0%,0%);fill-opacity:1;" d="M 8.730469 8.5625 C 8.761719 8.5625 8.792969 8.550781 8.816406 8.527344 C 8.886719 8.453125 8.953125 8.378906 9.015625 8.308594 C 9.03125 8.285156 9.042969 8.257812 9.042969 8.230469 C 9.042969 8.195312 9.027344 8.164062 9 8.140625 C 8.953125 8.097656 8.875 8.105469 8.832031 8.152344 C 8.773438 8.222656 8.707031 8.292969 8.644531 8.363281 C 8.621094 8.386719 8.609375 8.414062 8.609375 8.445312 C 8.609375 8.480469 8.625 8.507812 8.648438 8.53125 C 8.667969 8.550781 8.699219 8.5625 8.730469 8.5625 Z M 8.730469 8.5625 "/>
<path style=" stroke:none;fill-rule:nonzero;fill:rgb(0%,0%,0%);fill-opacity:1;" d="M 10.421875 5.992188 C 10.457031 5.992188 10.488281 5.976562 10.511719 5.949219 C 10.570312 5.878906 10.632812 5.808594 10.695312 5.738281 C 10.695312 5.738281 10.699219 5.738281 10.699219 5.734375 C 10.71875 5.714844 10.730469 5.683594 10.730469 5.65625 C 10.730469 5.621094 10.714844 5.589844 10.691406 5.566406 C 10.644531 5.523438 10.566406 5.527344 10.523438 5.574219 C 10.453125 5.652344 10.390625 5.726562 10.328125 5.796875 C 10.285156 5.847656 10.292969 5.925781 10.34375 5.964844 C 10.367188 5.984375 10.390625 5.992188 10.421875 5.992188 Z M 10.421875 5.992188 "/>
<path style=" stroke:none;fill-rule:nonzero;fill:rgb(0%,0%,0%);fill-opacity:1;" d="M 9.910156 6.601562 C 9.929688 6.613281 9.949219 6.621094 9.972656 6.621094 C 10.011719 6.621094 10.050781 6.597656 10.074219 6.5625 C 10.121094 6.480469 10.171875 6.402344 10.226562 6.324219 C 10.238281 6.304688 10.246094 6.285156 10.246094 6.257812 C 10.246094 6.21875 10.226562 6.183594 10.195312 6.160156 C 10.144531 6.125 10.066406 6.136719 10.03125 6.191406 C 9.972656 6.273438 9.921875 6.355469 9.871094 6.4375 C 9.835938 6.496094 9.851562 6.570312 9.910156 6.601562 Z M 9.910156 6.601562 "/>
<path style=" stroke:none;fill-rule:nonzero;fill:rgb(0%,0%,0%);fill-opacity:1;" d="M 10.945312 5.429688 C 10.976562 5.429688 11.003906 5.417969 11.027344 5.394531 C 11.097656 5.332031 11.167969 5.273438 11.242188 5.21875 C 11.269531 5.195312 11.289062 5.164062 11.289062 5.125 C 11.289062 5.097656 11.28125 5.074219 11.265625 5.054688 C 11.226562 5.003906 11.148438 4.992188 11.101562 5.027344 C 11.097656 5.027344 11.097656 5.027344 11.097656 5.027344 C 11.019531 5.085938 10.941406 5.152344 10.867188 5.222656 C 10.84375 5.242188 10.828125 5.273438 10.828125 5.304688 C 10.828125 5.335938 10.839844 5.367188 10.859375 5.390625 C 10.882812 5.414062 10.914062 5.429688 10.945312 5.429688 Z M 10.945312 5.429688 "/>
<path style=" stroke:none;fill-rule:nonzero;fill:rgb(0%,0%,0%);fill-opacity:1;" d="M 13.070312 4.90625 C 13.15625 4.929688 13.246094 4.957031 13.335938 4.992188 C 13.347656 4.996094 13.363281 5 13.375 5 C 13.425781 5 13.46875 4.964844 13.488281 4.921875 C 13.511719 4.859375 13.480469 4.789062 13.417969 4.765625 C 13.320312 4.730469 13.226562 4.699219 13.128906 4.675781 C 13.066406 4.660156 13 4.699219 12.984375 4.757812 C 12.976562 4.789062 12.980469 4.824219 12.996094 4.851562 C 13.011719 4.878906 13.039062 4.898438 13.070312 4.90625 Z M 13.070312 4.90625 "/>
<path style=" stroke:none;fill-rule:nonzero;fill:rgb(0%,0%,0%);fill-opacity:1;" d="M 11.585938 5 C 11.601562 5 11.617188 4.996094 11.632812 4.988281 C 11.714844 4.953125 11.804688 4.921875 11.890625 4.894531 C 11.941406 4.882812 11.976562 4.835938 11.976562 4.78125 C 11.976562 4.769531 11.976562 4.757812 11.972656 4.75 C 11.957031 4.6875 11.886719 4.648438 11.824219 4.667969 C 11.726562 4.695312 11.632812 4.730469 11.539062 4.773438 C 11.476562 4.796875 11.449219 4.867188 11.476562 4.929688 C 11.496094 4.972656 11.539062 5 11.585938 5 Z M 11.585938 5 "/>
<path style=" stroke:none;fill-rule:nonzero;fill:rgb(0%,0%,0%);fill-opacity:1;" d="M 12.339844 4.824219 C 12.425781 4.816406 12.519531 4.820312 12.613281 4.828125 L 12.613281 4.824219 L 12.613281 4.828125 C 12.617188 4.828125 12.621094 4.828125 12.625 4.828125 C 12.6875 4.828125 12.738281 4.777344 12.742188 4.71875 C 12.742188 4.714844 12.742188 4.710938 12.742188 4.707031 C 12.742188 4.644531 12.695312 4.59375 12.632812 4.589844 C 12.535156 4.582031 12.429688 4.578125 12.328125 4.585938 C 12.296875 4.585938 12.269531 4.601562 12.246094 4.625 C 12.226562 4.648438 12.214844 4.679688 12.214844 4.710938 C 12.21875 4.773438 12.273438 4.824219 12.339844 4.824219 Z M 12.339844 4.824219 "/>
<path style=" stroke:none;fill-rule:nonzero;fill:rgb(0%,0%,0%);fill-opacity:1;" d="M 8.171875 9.101562 C 8.203125 9.101562 8.230469 9.089844 8.25 9.070312 C 8.324219 9.011719 8.394531 8.945312 8.464844 8.875 C 8.46875 8.875 8.46875 8.875 8.46875 8.871094 C 8.492188 8.847656 8.507812 8.816406 8.507812 8.785156 C 8.507812 8.753906 8.496094 8.726562 8.472656 8.703125 C 8.429688 8.65625 8.351562 8.65625 8.304688 8.699219 C 8.234375 8.769531 8.164062 8.832031 8.097656 8.890625 C 8.070312 8.910156 8.058594 8.941406 8.054688 8.972656 C 8.054688 9.003906 8.0625 9.035156 8.082031 9.058594 C 8.105469 9.085938 8.140625 9.101562 8.171875 9.101562 Z M 8.171875 9.101562 "/>
<path style=" stroke:none;fill-rule:nonzero;fill:rgb(0%,0%,0%);fill-opacity:1;" d="M 4.917969 13.386719 C 4.882812 13.300781 4.855469 13.210938 4.832031 13.125 L 4.832031 13.121094 C 4.816406 13.058594 4.75 13.019531 4.6875 13.039062 C 4.636719 13.050781 4.597656 13.097656 4.597656 13.152344 C 4.597656 13.164062 4.601562 13.171875 4.601562 13.183594 C 4.628906 13.277344 4.65625 13.375 4.691406 13.46875 C 4.710938 13.515625 4.753906 13.546875 4.804688 13.546875 C 4.820312 13.546875 4.832031 13.546875 4.847656 13.539062 C 4.90625 13.519531 4.9375 13.449219 4.917969 13.386719 Z M 4.917969 13.386719 "/>
<path style=" stroke:none;fill-rule:nonzero;fill:rgb(0%,0%,0%);fill-opacity:1;" d="M 5.597656 10.785156 C 5.628906 10.785156 5.65625 10.777344 5.679688 10.757812 C 5.75 10.691406 5.820312 10.628906 5.894531 10.570312 C 5.921875 10.546875 5.9375 10.515625 5.9375 10.476562 C 5.9375 10.449219 5.929688 10.421875 5.910156 10.402344 C 5.871094 10.355469 5.792969 10.347656 5.742188 10.386719 C 5.671875 10.445312 5.59375 10.511719 5.519531 10.578125 C 5.496094 10.601562 5.480469 10.628906 5.480469 10.660156 C 5.480469 10.695312 5.488281 10.722656 5.511719 10.746094 C 5.535156 10.773438 5.566406 10.785156 5.597656 10.785156 Z M 5.597656 10.785156 "/>
<path style=" stroke:none;fill-rule:nonzero;fill:rgb(0%,0%,0%);fill-opacity:1;" d="M 4.683594 12.027344 C 4.695312 12.027344 4.707031 12.03125 4.71875 12.03125 C 4.769531 12.03125 4.816406 11.996094 4.832031 11.945312 C 4.859375 11.859375 4.890625 11.769531 4.925781 11.6875 C 4.933594 11.671875 4.9375 11.65625 4.9375 11.640625 C 4.9375 11.59375 4.910156 11.550781 4.867188 11.53125 C 4.808594 11.503906 4.738281 11.53125 4.710938 11.589844 C 4.667969 11.683594 4.632812 11.78125 4.601562 11.878906 C 4.585938 11.941406 4.621094 12.007812 4.683594 12.027344 Z M 4.683594 12.027344 "/>
<path style=" stroke:none;fill-rule:nonzero;fill:rgb(0%,0%,0%);fill-opacity:1;" d="M 4.636719 12.796875 C 4.640625 12.796875 4.644531 12.796875 4.648438 12.796875 C 4.710938 12.789062 4.761719 12.734375 4.757812 12.667969 C 4.753906 12.613281 4.75 12.5625 4.75 12.511719 C 4.75 12.472656 4.753906 12.429688 4.753906 12.394531 C 4.753906 12.390625 4.753906 12.390625 4.753906 12.386719 C 4.753906 12.324219 4.707031 12.269531 4.644531 12.269531 C 4.578125 12.265625 4.519531 12.316406 4.515625 12.378906 C 4.515625 12.421875 4.515625 12.46875 4.515625 12.511719 C 4.515625 12.566406 4.515625 12.625 4.519531 12.683594 C 4.523438 12.746094 4.574219 12.796875 4.636719 12.796875 Z M 4.636719 12.796875 "/>
<path style=" stroke:none;fill-rule:nonzero;fill:rgb(0%,0%,0%);fill-opacity:1;" d="M 7.550781 9.554688 C 7.574219 9.554688 7.59375 9.550781 7.613281 9.539062 C 7.699219 9.484375 7.78125 9.433594 7.863281 9.375 C 7.894531 9.355469 7.914062 9.316406 7.914062 9.277344 C 7.914062 9.253906 7.90625 9.230469 7.890625 9.210938 C 7.855469 9.160156 7.777344 9.144531 7.726562 9.179688 C 7.648438 9.234375 7.570312 9.285156 7.488281 9.332031 C 7.460938 9.351562 7.441406 9.375 7.433594 9.40625 C 7.425781 9.4375 7.433594 9.46875 7.449219 9.496094 C 7.472656 9.535156 7.507812 9.554688 7.550781 9.554688 Z M 7.550781 9.554688 "/>
<path style=" stroke:none;fill-rule:nonzero;fill:rgb(0%,0%,0%);fill-opacity:1;" d="M 4.992188 11.320312 C 5.015625 11.335938 5.039062 11.34375 5.066406 11.34375 C 5.101562 11.34375 5.136719 11.324219 5.160156 11.296875 C 5.214844 11.222656 5.273438 11.152344 5.339844 11.085938 C 5.359375 11.0625 5.371094 11.035156 5.371094 11.003906 C 5.371094 10.96875 5.355469 10.941406 5.332031 10.917969 C 5.289062 10.875 5.207031 10.875 5.164062 10.921875 C 5.09375 10.996094 5.03125 11.074219 4.96875 11.152344 C 4.949219 11.179688 4.941406 11.210938 4.949219 11.242188 C 4.953125 11.273438 4.96875 11.300781 4.992188 11.320312 Z M 4.992188 11.320312 "/>
<path style=" stroke:none;fill-rule:nonzero;fill:rgb(0%,0%,0%);fill-opacity:1;" d="M 6.867188 9.917969 C 6.886719 9.917969 6.90625 9.914062 6.921875 9.90625 C 6.96875 9.882812 7.015625 9.859375 7.0625 9.835938 C 7.101562 9.8125 7.140625 9.792969 7.179688 9.773438 C 7.222656 9.753906 7.246094 9.710938 7.246094 9.667969 C 7.246094 9.648438 7.242188 9.628906 7.234375 9.613281 C 7.203125 9.558594 7.132812 9.53125 7.074219 9.5625 C 7.035156 9.582031 7 9.597656 6.960938 9.617188 C 6.914062 9.640625 6.863281 9.667969 6.816406 9.691406 C 6.785156 9.707031 6.765625 9.730469 6.753906 9.761719 C 6.746094 9.792969 6.75 9.824219 6.761719 9.851562 C 6.785156 9.890625 6.824219 9.917969 6.867188 9.917969 Z M 6.867188 9.917969 "/>
<path style=" stroke:none;fill-rule:nonzero;fill:rgb(0%,0%,0%);fill-opacity:1;" d="M 6.203125 10.308594 C 6.226562 10.308594 6.25 10.300781 6.269531 10.285156 C 6.347656 10.230469 6.425781 10.183594 6.507812 10.132812 C 6.542969 10.109375 6.566406 10.074219 6.566406 10.03125 C 6.566406 10.007812 6.558594 9.988281 6.546875 9.96875 C 6.515625 9.914062 6.4375 9.894531 6.386719 9.929688 C 6.296875 9.980469 6.214844 10.035156 6.136719 10.089844 C 6.109375 10.105469 6.09375 10.132812 6.085938 10.164062 C 6.082031 10.195312 6.085938 10.230469 6.105469 10.253906 C 6.128906 10.289062 6.164062 10.308594 6.203125 10.308594 Z M 6.203125 10.308594 "/>
<path style=" stroke:none;fill-rule:nonzero;fill:rgb(0%,0%,0%);fill-opacity:1;" d="M 5.148438 13.828125 L 5.128906 13.839844 C 5.125 13.835938 5.121094 13.828125 5.117188 13.824219 C 5.117188 13.824219 5.117188 13.824219 5.117188 13.820312 C 5.113281 13.816406 5.113281 13.8125 5.109375 13.808594 C 5.078125 13.753906 5.003906 13.734375 4.949219 13.765625 C 4.910156 13.785156 4.886719 13.824219 4.886719 13.867188 C 4.886719 13.886719 4.894531 13.910156 4.902344 13.925781 C 4.90625 13.929688 4.90625 13.933594 4.910156 13.941406 C 4.957031 14.023438 4.988281 14.070312 4.992188 14.070312 C 5.015625 14.105469 5.050781 14.121094 5.089844 14.121094 C 5.109375 14.121094 5.132812 14.117188 5.152344 14.105469 L 5.273438 14.03125 C 5.328125 13.996094 5.347656 13.921875 5.3125 13.867188 C 5.277344 13.808594 5.203125 13.792969 5.148438 13.828125 Z M 5.148438 13.828125 "/>
<path style=" stroke:none;fill-rule:nonzero;fill:rgb(0%,0%,0%);fill-opacity:1;" d="M 5.769531 13.445312 L 5.535156 13.585938 C 5.480469 13.621094 5.464844 13.695312 5.496094 13.75 C 5.519531 13.785156 5.558594 13.808594 5.597656 13.808594 C 5.621094 13.808594 5.644531 13.800781 5.660156 13.789062 L 5.894531 13.644531 C 5.921875 13.628906 5.941406 13.601562 5.949219 13.570312 C 5.957031 13.542969 5.949219 13.507812 5.933594 13.480469 C 5.914062 13.445312 5.875 13.425781 5.832031 13.425781 C 5.808594 13.425781 5.789062 13.429688 5.769531 13.445312 Z M 5.769531 13.445312 "/>
<path style=" stroke:none;fill-rule:nonzero;fill:rgb(0%,0%,0%);fill-opacity:1;" d="M 5.898438 12.074219 C 5.789062 12.074219 5.683594 12.117188 5.605469 12.195312 C 5.445312 12.355469 5.445312 12.617188 5.605469 12.777344 C 5.671875 12.84375 5.757812 12.882812 5.847656 12.894531 L 5.726562 12.773438 C 5.601562 12.648438 5.601562 12.445312 5.726562 12.320312 C 5.789062 12.261719 5.867188 12.226562 5.953125 12.226562 C 6.039062 12.226562 6.121094 12.261719 6.179688 12.324219 L 6.308594 12.453125 C 6.300781 12.359375 6.261719 12.265625 6.191406 12.195312 C 6.113281 12.117188 6.007812 12.074219 5.898438 12.074219 Z M 5.898438 12.074219 "/>
<path style=" stroke:none;fill-rule:nonzero;fill:rgb(0%,0%,0%);fill-opacity:1;" d="M 6.832031 11.140625 C 6.71875 11.140625 6.617188 11.183594 6.539062 11.261719 C 6.460938 11.339844 6.417969 11.445312 6.417969 11.554688 C 6.417969 11.664062 6.460938 11.769531 6.539062 11.847656 C 6.605469 11.910156 6.6875 11.953125 6.777344 11.964844 L 6.65625 11.84375 C 6.597656 11.785156 6.5625 11.703125 6.5625 11.617188 C 6.5625 11.53125 6.597656 11.453125 6.65625 11.390625 C 6.71875 11.332031 6.800781 11.296875 6.882812 11.296875 C 6.96875 11.296875 7.050781 11.332031 7.109375 11.390625 L 7.242188 11.523438 C 7.234375 11.425781 7.195312 11.335938 7.121094 11.261719 C 7.042969 11.183594 6.941406 11.140625 6.832031 11.140625 Z M 6.832031 11.140625 "/>
<path style=" stroke:none;fill-rule:nonzero;fill:rgb(0%,0%,0%);fill-opacity:1;" d="M 7.707031 11.03125 L 7.589844 10.914062 C 7.464844 10.789062 7.464844 10.585938 7.589844 10.460938 C 7.648438 10.402344 7.730469 10.367188 7.816406 10.367188 C 7.902344 10.367188 7.980469 10.402344 8.042969 10.460938 L 8.171875 10.59375 C 8.164062 10.496094 8.125 10.402344 8.054688 10.332031 C 7.976562 10.253906 7.871094 10.210938 7.761719 10.210938 C 7.652344 10.210938 7.546875 10.253906 7.46875 10.332031 C 7.308594 10.492188 7.308594 10.753906 7.46875 10.914062 C 7.535156 10.980469 7.617188 11.019531 7.707031 11.03125 Z M 7.707031 11.03125 "/>
<path style=" stroke:none;fill-rule:nonzero;fill:rgb(0%,0%,0%);fill-opacity:1;" d="M 8.691406 9.28125 C 8.582031 9.28125 8.480469 9.324219 8.402344 9.398438 C 8.238281 9.5625 8.238281 9.824219 8.402344 9.984375 C 8.464844 10.046875 8.546875 10.089844 8.636719 10.101562 L 8.519531 9.984375 C 8.457031 9.921875 8.425781 9.84375 8.425781 9.757812 C 8.425781 9.671875 8.457031 9.589844 8.519531 9.53125 C 8.578125 9.46875 8.660156 9.4375 8.746094 9.4375 C 8.832031 9.4375 8.910156 9.46875 8.972656 9.53125 L 9.105469 9.664062 C 9.097656 9.566406 9.058594 9.472656 8.984375 9.398438 C 8.90625 9.324219 8.804688 9.28125 8.691406 9.28125 Z M 8.691406 9.28125 "/>
<path style=" stroke:none;fill-rule:nonzero;fill:rgb(0%,0%,0%);fill-opacity:1;" d="M 9.625 8.347656 C 9.511719 8.347656 9.410156 8.390625 9.332031 8.46875 C 9.253906 8.546875 9.210938 8.652344 9.210938 8.761719 C 9.210938 8.871094 9.253906 8.976562 9.332031 9.054688 C 9.394531 9.117188 9.476562 9.15625 9.566406 9.167969 L 9.449219 9.050781 C 9.324219 8.929688 9.324219 8.726562 9.449219 8.601562 C 9.511719 8.539062 9.589844 8.507812 9.675781 8.507812 C 9.761719 8.507812 9.84375 8.539062 9.902344 8.601562 L 10.035156 8.730469 C 10.027344 8.636719 9.988281 8.542969 9.914062 8.46875 C 9.835938 8.390625 9.734375 8.347656 9.625 8.347656 Z M 9.625 8.347656 "/>
<path style=" stroke:none;fill-rule:nonzero;fill:rgb(0%,0%,0%);fill-opacity:1;" d="M 10.261719 8.121094 C 10.328125 8.1875 10.410156 8.226562 10.496094 8.238281 L 10.378906 8.121094 C 10.320312 8.0625 10.285156 7.980469 10.285156 7.894531 C 10.285156 7.808594 10.320312 7.730469 10.378906 7.667969 C 10.441406 7.609375 10.519531 7.574219 10.605469 7.574219 C 10.691406 7.574219 10.773438 7.609375 10.832031 7.667969 L 10.964844 7.800781 C 10.960938 7.707031 10.921875 7.613281 10.847656 7.539062 C 10.769531 7.460938 10.664062 7.417969 10.554688 7.417969 C 10.445312 7.417969 10.339844 7.460938 10.261719 7.539062 C 10.101562 7.699219 10.101562 7.960938 10.261719 8.121094 Z M 10.261719 8.121094 "/>
<path style=" stroke:none;fill-rule:nonzero;fill:rgb(0%,0%,0%);fill-opacity:1;" d="M 11.484375 6.484375 C 11.375 6.484375 11.273438 6.527344 11.195312 6.605469 C 11.035156 6.769531 11.035156 7.03125 11.195312 7.191406 C 11.257812 7.253906 11.339844 7.292969 11.425781 7.304688 L 11.3125 7.191406 C 11.1875 7.066406 11.1875 6.863281 11.3125 6.738281 C 11.371094 6.679688 11.453125 6.644531 11.539062 6.644531 C 11.621094 6.644531 11.703125 6.679688 11.765625 6.738281 L 11.898438 6.871094 C 11.890625 6.777344 11.851562 6.679688 11.777344 6.605469 C 11.699219 6.527344 11.597656 6.484375 11.484375 6.484375 Z M 11.484375 6.484375 "/>
<path style=" stroke:none;fill-rule:nonzero;fill:rgb(0%,0%,0%);fill-opacity:1;" d="M 12.355469 6.375 L 12.242188 6.261719 C 12.117188 6.136719 12.117188 5.933594 12.242188 5.808594 C 12.300781 5.746094 12.382812 5.714844 12.46875 5.714844 C 12.554688 5.714844 12.632812 5.746094 12.695312 5.808594 L 12.828125 5.941406 C 12.824219 5.84375 12.78125 5.746094 12.710938 5.675781 C 12.632812 5.597656 12.527344 5.554688 12.417969 5.554688 C 12.308594 5.554688 12.203125 5.597656 12.125 5.675781 C 12.046875 5.753906 12.003906 5.855469 12.003906 5.96875 C 12.003906 6.078125 12.046875 6.179688 12.125 6.257812 C 12.1875 6.324219 12.269531 6.363281 12.355469 6.375 Z M 12.355469 6.375 "/>
<path style=" stroke:none;fill-rule:nonzero;fill:rgb(0%,0%,0%);fill-opacity:1;" d="M 7.773438 13.773438 C 7.703125 13.703125 7.613281 13.664062 7.511719 13.65625 L 7.621094 13.765625 C 7.746094 13.890625 7.746094 14.09375 7.621094 14.21875 C 7.5625 14.277344 7.480469 14.3125 7.394531 14.3125 C 7.308594 14.3125 7.230469 14.277344 7.167969 14.21875 L 7.070312 14.117188 C 7.082031 14.207031 7.121094 14.292969 7.1875 14.359375 C 7.265625 14.4375 7.371094 14.480469 7.480469 14.480469 C 7.589844 14.480469 7.695312 14.4375 7.773438 14.359375 C 7.851562 14.28125 7.894531 14.175781 7.894531 14.066406 C 7.894531 13.957031 7.851562 13.851562 7.773438 13.773438 Z M 7.773438 13.773438 "/>
<path style=" stroke:none;fill-rule:nonzero;fill:rgb(0%,0%,0%);fill-opacity:1;" d="M 8.703125 12.84375 C 8.632812 12.773438 8.542969 12.730469 8.445312 12.722656 L 8.554688 12.832031 C 8.613281 12.894531 8.648438 12.972656 8.648438 13.058594 C 8.648438 13.144531 8.613281 13.226562 8.554688 13.285156 C 8.492188 13.347656 8.410156 13.378906 8.328125 13.378906 C 8.242188 13.378906 8.160156 13.347656 8.101562 13.285156 L 8.003906 13.1875 C 8.015625 13.277344 8.054688 13.363281 8.121094 13.425781 C 8.199219 13.503906 8.300781 13.546875 8.410156 13.546875 C 8.523438 13.546875 8.625 13.503906 8.703125 13.425781 C 8.863281 13.265625 8.863281 13.003906 8.703125 12.84375 Z M 8.703125 12.84375 "/>
<path style=" stroke:none;fill-rule:nonzero;fill:rgb(0%,0%,0%);fill-opacity:1;" d="M 9.632812 12.496094 C 9.796875 12.335938 9.796875 12.074219 9.632812 11.914062 C 9.5625 11.84375 9.472656 11.800781 9.375 11.792969 L 9.484375 11.902344 C 9.609375 12.027344 9.609375 12.230469 9.484375 12.355469 C 9.421875 12.417969 9.34375 12.449219 9.257812 12.449219 C 9.171875 12.449219 9.089844 12.417969 9.03125 12.355469 L 8.933594 12.257812 C 8.945312 12.347656 8.984375 12.429688 9.050781 12.496094 C 9.128906 12.574219 9.230469 12.617188 9.34375 12.617188 C 9.453125 12.617188 9.554688 12.574219 9.632812 12.496094 Z M 9.632812 12.496094 "/>
<path style=" stroke:none;fill-rule:nonzero;fill:rgb(0%,0%,0%);fill-opacity:1;" d="M 10.273438 11.6875 C 10.382812 11.6875 10.488281 11.644531 10.566406 11.566406 C 10.726562 11.402344 10.726562 11.140625 10.566406 10.980469 C 10.496094 10.910156 10.402344 10.867188 10.304688 10.863281 L 10.414062 10.972656 C 10.472656 11.03125 10.507812 11.113281 10.507812 11.199219 C 10.507812 11.285156 10.472656 11.363281 10.414062 11.425781 C 10.355469 11.484375 10.273438 11.519531 10.1875 11.519531 C 10.101562 11.519531 10.023438 11.484375 9.960938 11.425781 L 9.867188 11.328125 C 9.878906 11.414062 9.914062 11.5 9.980469 11.566406 C 10.058594 11.644531 10.164062 11.6875 10.273438 11.6875 Z M 10.273438 11.6875 "/>
<path style=" stroke:none;fill-rule:nonzero;fill:rgb(0%,0%,0%);fill-opacity:1;" d="M 11.203125 10.753906 C 11.316406 10.753906 11.417969 10.710938 11.496094 10.632812 C 11.574219 10.554688 11.617188 10.453125 11.617188 10.34375 C 11.617188 10.230469 11.574219 10.128906 11.496094 10.050781 C 11.425781 9.980469 11.332031 9.9375 11.234375 9.929688 L 11.34375 10.042969 C 11.46875 10.167969 11.46875 10.371094 11.34375 10.496094 C 11.285156 10.554688 11.203125 10.589844 11.117188 10.589844 C 11.03125 10.589844 10.953125 10.554688 10.890625 10.496094 L 10.796875 10.398438 C 10.808594 10.484375 10.847656 10.566406 10.914062 10.632812 C 10.992188 10.710938 11.09375 10.753906 11.203125 10.753906 Z M 11.203125 10.753906 "/>
<path style=" stroke:none;fill-rule:nonzero;fill:rgb(0%,0%,0%);fill-opacity:1;" d="M 12.164062 9 L 12.273438 9.109375 C 12.335938 9.171875 12.367188 9.253906 12.367188 9.335938 C 12.367188 9.421875 12.335938 9.503906 12.273438 9.5625 C 12.214844 9.625 12.132812 9.65625 12.046875 9.65625 C 11.964844 9.65625 11.882812 9.625 11.824219 9.5625 L 11.726562 9.46875 C 11.742188 9.554688 11.777344 9.636719 11.84375 9.703125 C 11.921875 9.78125 12.027344 9.824219 12.136719 9.824219 C 12.246094 9.824219 12.351562 9.78125 12.429688 9.703125 C 12.589844 9.542969 12.589844 9.28125 12.429688 9.117188 C 12.355469 9.046875 12.261719 9.007812 12.164062 9 Z M 12.164062 9 "/>
<path style=" stroke:none;fill-rule:nonzero;fill:rgb(0%,0%,0%);fill-opacity:1;" d="M 13.066406 8.890625 C 13.175781 8.890625 13.28125 8.847656 13.359375 8.773438 C 13.519531 8.609375 13.519531 8.347656 13.359375 8.1875 C 13.289062 8.117188 13.195312 8.074219 13.09375 8.066406 L 13.207031 8.179688 C 13.332031 8.304688 13.332031 8.507812 13.207031 8.632812 C 13.144531 8.695312 13.066406 8.726562 12.980469 8.726562 C 12.894531 8.726562 12.8125 8.695312 12.753906 8.632812 L 12.660156 8.539062 C 12.671875 8.628906 12.710938 8.707031 12.777344 8.773438 C 12.851562 8.847656 12.957031 8.890625 13.066406 8.890625 Z M 13.066406 8.890625 "/>
<path style=" stroke:none;fill-rule:nonzero;fill:rgb(0%,0%,0%);fill-opacity:1;" d="M 14.023438 7.136719 L 14.136719 7.25 C 14.195312 7.3125 14.230469 7.390625 14.230469 7.476562 C 14.230469 7.5625 14.195312 7.640625 14.136719 7.703125 C 14.074219 7.761719 13.996094 7.796875 13.910156 7.796875 C 13.824219 7.796875 13.742188 7.761719 13.683594 7.703125 L 13.589844 7.609375 C 13.605469 7.695312 13.640625 7.777344 13.707031 7.839844 C 13.785156 7.917969 13.886719 7.960938 14 7.960938 C 14.109375 7.960938 14.210938 7.917969 14.289062 7.839844 C 14.367188 7.761719 14.410156 7.660156 14.410156 7.546875 C 14.410156 7.4375 14.367188 7.335938 14.289062 7.257812 C 14.21875 7.183594 14.125 7.144531 14.023438 7.136719 Z M 14.023438 7.136719 "/>
</g>
</svg>
