<?xml version="1.0" encoding="UTF-8"?>
<svg xmlns="http://www.w3.org/2000/svg" xmlns:xlink="http://www.w3.org/1999/xlink" width="40" height="40" viewBox="0 0 40 40" version="1.1">
<g id="surface1">
<path style=" stroke:none;fill-rule:nonzero;fill:rgb(29.019608%,47.843137%,100%);fill-opacity:1;" d="M 40 20 C 40 31.046875 31.046875 40 20 40 C 8.953125 40 0 31.046875 0 20 C 0 8.953125 8.953125 0 20 0 C 31.046875 0 40 8.953125 40 20 Z M 40 20 "/>
<path style=" stroke:none;fill-rule:nonzero;fill:rgb(29.019608%,47.843137%,100%);fill-opacity:1;" d="M 40 20 C 40 31.046875 31.046875 40 20 40 C 8.953125 40 0 31.046875 0 20 C 0 8.953125 8.953125 0 20 0 C 31.046875 0 40 8.953125 40 20 Z M 40 20 "/>
<path style=" stroke:none;fill-rule:nonzero;fill:rgb(0%,32.54902%,74.901961%);fill-opacity:1;" d="M 40 20 C 40 18.78125 39.890625 17.585938 39.679688 16.421875 L 32.71875 9.460938 L 22.140625 20.375 L 8.992188 20.46875 L 13.515625 24.992188 L 11.4375 25.015625 L 14.585938 28.164062 L 13.242188 29.554688 L 6.539062 28.460938 L 17.976562 39.898438 C 18.640625 39.964844 19.316406 40 20 40 C 31.046875 40 40 31.046875 40 20 Z M 40 20 "/>
<path style=" stroke:none;fill-rule:nonzero;fill:rgb(100%,100%,100%);fill-opacity:1;" d="M 15.007812 30.941406 C 25.164062 30.941406 30.722656 22.523438 30.722656 15.226562 C 30.722656 14.984375 30.71875 14.746094 30.707031 14.507812 C 31.785156 13.730469 32.722656 12.757812 33.460938 11.648438 C 32.472656 12.089844 31.40625 12.382812 30.289062 12.519531 C 31.429688 11.835938 32.304688 10.753906 32.71875 9.460938 C 31.652344 10.09375 30.46875 10.554688 29.210938 10.804688 C 28.203125 9.730469 26.765625 9.058594 25.179688 9.058594 C 22.128906 9.058594 19.65625 11.53125 19.65625 14.582031 C 19.65625 15.015625 19.703125 15.4375 19.796875 15.84375 C 15.207031 15.609375 11.132812 13.414062 8.414062 10.070312 C 7.9375 10.886719 7.664062 11.835938 7.664062 12.847656 C 7.664062 14.765625 8.640625 16.453125 10.121094 17.445312 C 9.214844 17.417969 8.363281 17.167969 7.617188 16.753906 C 7.617188 16.777344 7.617188 16.800781 7.617188 16.824219 C 7.617188 19.5 9.523438 21.734375 12.050781 22.242188 C 11.585938 22.367188 11.097656 22.4375 10.59375 22.4375 C 10.238281 22.4375 9.890625 22.398438 9.554688 22.335938 C 10.257812 24.53125 12.296875 26.125 14.71875 26.171875 C 12.824219 27.65625 10.445312 28.539062 7.855469 28.539062 C 7.410156 28.539062 6.96875 28.511719 6.539062 28.460938 C 8.984375 30.027344 11.882812 30.941406 15.007812 30.941406 "/>
<path style=" stroke:none;fill-rule:nonzero;fill:rgb(86.27451%,88.235294%,92.156863%);fill-opacity:1;" d="M 33.460938 11.648438 C 32.472656 12.089844 31.40625 12.382812 30.289062 12.519531 C 31.429688 11.835938 32.304688 10.75 32.71875 9.460938 C 31.652344 10.09375 30.46875 10.554688 29.210938 10.804688 C 28.203125 9.730469 26.765625 9.058594 25.179688 9.058594 C 22.777344 9.058594 20.734375 10.59375 19.972656 12.734375 L 19.972656 30.199219 C 26.960938 27.988281 30.722656 21.226562 30.722656 15.226562 C 30.722656 14.984375 30.71875 14.746094 30.707031 14.507812 C 31.785156 13.730469 32.722656 12.757812 33.460938 11.648438 Z M 33.460938 11.648438 "/>
</g>
</svg>
